<svg width="1200" height="720" viewBox="0 0 1200 720" xmlns="http://www.w3.org/2000/svg" role="img" aria-labelledby="title desc">
  <title id="title">Modern hotel exterior at sunset</title>
  <desc id="desc">Stylized illustration of a seaside hotel with palm trees and warm sunset sky.</desc>
  <defs>
    <linearGradient id="sky" x1="0%" y1="0%" x2="0%" y2="100%">
      <stop stop-color="#ffb88c" offset="0" />
      <stop stop-color="#ffe6d0" offset="1" />
    </linearGradient>
    <linearGradient id="ocean" x1="0%" y1="0%" x2="100%" y2="0%">
      <stop stop-color="#2daaa8" offset="0" />
      <stop stop-color="#71d1cf" offset="1" />
    </linearGradient>
  </defs>
  <rect width="1200" height="720" fill="url(#sky)" rx="32" />
  <rect y="520" width="1200" height="200" fill="url(#ocean)" />
  <circle cx="170" cy="180" r="70" fill="#ffd89b" opacity="0.8" />
  <rect x="240" y="200" width="520" height="340" rx="30" fill="#fff" stroke="#e5e3de" stroke-width="6" />
  <rect x="280" y="240" width="80" height="300" rx="14" fill="#2daaa8" />
  <rect x="400" y="240" width="90" height="220" rx="16" fill="#ffe0c2" />
  <rect x="520" y="220" width="90" height="260" rx="18" fill="#d7e6ff" />
  <rect x="640" y="260" width="60" height="140" rx="12" fill="#ff6b2c" opacity="0.9" />
  <rect x="300" y="320" width="440" height="30" fill="#1f1f1f" opacity="0.08" />
  <rect x="300" y="360" width="440" height="30" fill="#1f1f1f" opacity="0.06" />
  <rect x="300" y="400" width="440" height="30" fill="#1f1f1f" opacity="0.04" />
  <rect x="260" y="460" width="500" height="40" fill="#fff" stroke="#d7d0c9" stroke-width="4" />
  <path d="M920 520c-12-46-28-72-60-78-32-6-64 8-76 46h136z" fill="#ff6b2c" opacity="0.28" />
  <path d="M920 520c-12-46-28-72-60-78-32-6-64 8-76 46h136z" fill="#ff6b2c" opacity="0.36" transform="translate(24 -6)" />
  <rect x="860" y="360" width="36" height="160" rx="8" fill="#2daaa8" />
  <rect x="910" y="340" width="40" height="180" rx="10" fill="#23807e" />
  <rect x="955" y="360" width="30" height="160" rx="7" fill="#71d1cf" />
  <rect x="884" y="350" width="38" height="16" rx="8" fill="#f7c14d" />
  <rect x="934" y="330" width="38" height="16" rx="8" fill="#f7c14d" />
</svg>
